<svg xmlns="http://www.w3.org/2000/svg" xmlns:xlink="http://www.w3.org/1999/xlink" id="Layer_1" x="0" y="0" version="1.1" viewBox="0 0 69 69" xml:space="preserve" style="enable-background:new 0 0 69 69"><style type="text/css">.st9{fill:#231f20}</style><g><path d="M11.7,10c-2.9,0-5.3,2.4-5.3,5.3V41l-5.7,10c-0.2,0.3-0.3,0.7-0.3,1.1v3c0,1.2,1,2.3,2.3,2.3h41.6 c2.6,2.3,5.9,3.8,9.6,3.8c7.9,0,14.3-6.4,14.3-14.3c0-6.6-4.5-12.1-10.6-13.8V15.2c0-2.9-2.4-5.3-5.3-5.3H11.7z M11.7,14.5h40.7 c0.5,0,0.8,0.3,0.8,0.8v17.4c-4.8,0.3-9,2.9-11.4,6.7H11V15.2C11,14.8,11.3,14.5,11.7,14.5z M53.9,37.1c5.4,0,9.8,4.4,9.8,9.8 c0,5.4-4.4,9.8-9.8,9.8s-9.8-4.4-9.8-9.8C44.1,41.5,48.5,37.1,53.9,37.1z M10,43.9H40c-0.2,1-0.3,2-0.3,3c0,2.2,0.5,4.2,1.4,6h-36 v-0.2L10,43.9z" class="st9"/><path d="M51.7,40.9c0,0-0.1,0-0.1,0c-0.4,0.1-0.6,0.4-0.6,0.8v10.6c0,0.4,0.3,0.7,0.8,0.7c0.1,0,0.3,0,0.4-0.1l7.5-5.3 c0.3-0.2,0.4-0.7,0.2-1c-0.1-0.1-0.1-0.1-0.2-0.2L52.1,41C52,40.9,51.8,40.9,51.7,40.9z" class="st9"/><path d="M29.6,16.8c-1.2,0.1-2.2,1.1-2.1,2.4c0.1,1.2,1.1,2.2,2.4,2.1h4.5c1.2,0,2.3-1,2.3-2.2c0-1.2-1-2.3-2.2-2.3 c0,0,0,0-0.1,0h-4.5C29.7,16.7,29.7,16.7,29.6,16.8z" class="st9"/></g></svg>