<svg xmlns="http://www.w3.org/2000/svg" xmlns:xlink="http://www.w3.org/1999/xlink" id="Layer_1" x="0" y="0" version="1.1" viewBox="0 0 77.5 71.5" xml:space="preserve" style="enable-background:new 0 0 77.5 71.5"><style type="text/css">.krw-icon{fill:#f9ee02}</style><g><g><path d="M272.7-199.5c-66.2,0-120,53.8-120,120s53.8,120,120,120s120-53.8,120-120S338.9-199.5,272.7-199.5z M272.7-187.5c59.7,0,108,48.3,108,108s-48.3,108-108,108s-108-48.3-108-108S213-187.5,272.7-187.5z" class="krw-icon" transform="matrix(0.26458333,0,0,0.26458333,-33.403463,56.772625)"/></g></g><path d="M58.4,36.9h-5.1l3.7-14h-3.6l-3.6,14h-5.1l-4.3-14H37l-4.1,14h-5l-3.6-14h-3.6l3.7,14h-3.9v1.8H25l3.5,13.1h3.3	l3.8-13.1h6.5L46,51.7h3.3l3.5-13.1h5.6V36.9z M31.8,40.4c-0.7,2.3-1.2,4.7-1.6,7.1c-0.3-2-0.7-4.3-1.4-6.8l-0.5-2h4L31.8,40.4z M36.1,36.9l1.3-4.4c0.6-2.1,1.1-4,1.4-5.7c0,0.3,0.2,1,0.5,2.3c0.3,1.3,0.7,2.4,0.9,3.2l1.3,4.5H36.1z M49,40.6	c-0.7,2.7-1.2,5-1.4,6.8c-0.4-2.6-1-4.9-1.6-6.9l-0.6-1.9h4.1L49,40.6z" class="krw-icon"/></svg>