<svg xmlns="http://www.w3.org/2000/svg" xmlns:xlink="http://www.w3.org/1999/xlink" id="Layer_1" x="0" y="0" version="1.1" viewBox="0 0 54.9 54.9" xml:space="preserve" style="enable-background:new 0 0 54.9 54.9"><style type="text/css">.icon-help-1{fill:#00aced}.icon-help-2{fill:#fff}</style><g id="XMLID_2247_"><circle id="XMLID_2215_" cx="27.4" cy="27.4" r="27.4" class="icon-help-1"/><g id="XMLID_2219_"><path id="XMLID_2221_" d="M18,21.5c0.1-6.1,3.8-9.7,9.7-9.7c5.6,0,9.2,2.7,9.2,7.5c0,6.8-6.8,7.4-6.8,12.9H25 c0-6.9,5.7-7.2,5.7-11.8c0-2.1-1.4-3.1-3.6-3.1c-2.4,0-3.8,1.4-3.9,4.1L18,21.5z M30.9,39.5c0,2-1.4,3.5-3.4,3.5 c-2,0-3.4-1.5-3.4-3.5c0-2.1,1.4-3.5,3.4-3.5C29.4,36,30.9,37.4,30.9,39.5z" class="icon-help-2"/></g></g></svg>