<svg xmlns="http://www.w3.org/2000/svg" xmlns:xlink="http://www.w3.org/1999/xlink" id="Layer_1" x="0" y="0" version="1.1" viewBox="0 0 67 67" xml:space="preserve" style="enable-background:new 0 0 67 67"><style type="text/css">.dots-1{fill:none;stroke:#cfd1d2;stroke-miterlimit:10}</style><g id="XMLID_2291_"><rect id="XMLID_646_" width="6.9" height="6.9" x="14.7" y="14.7" class="dots-2"/><rect id="XMLID_1827_" width="6.9" height="6.9" x="29.8" y="14.7" class="dots-2"/><rect id="XMLID_1919_" width="6.9" height="6.9" x="45" y="14.7" class="dots-2"/><rect id="XMLID_1939_" width="6.9" height="6.9" x="14.7" y="29.8" class="dots-2"/><rect id="XMLID_1922_" width="6.9" height="6.9" x="29.8" y="29.8" class="dots-2"/><rect id="XMLID_1920_" width="6.9" height="6.9" x="45" y="29.8" class="dots-2"/><rect id="XMLID_1948_" width="6.9" height="6.9" x="14.7" y="45" class="dots-2"/><rect id="XMLID_1945_" width="6.9" height="6.9" x="29.8" y="45" class="dots-2"/><rect id="XMLID_1941_" width="6.9" height="6.9" x="45" y="45" class="dots-2"/><path id="XMLID_1326_" d="M64.1,66.3H2.9c-1.2,0-2.3-1-2.3-2.3V3c0-1.2,1-2.3,2.3-2.3h61.1c1.2,0,2.3,1,2.3,2.3v61 C66.3,65.2,65.3,66.3,64.1,66.3z" class="dots-1"/></g></svg>