<svg xmlns="http://www.w3.org/2000/svg" xmlns:xlink="http://www.w3.org/1999/xlink" id="Layer_1" x="0" y="0" baseProfile="tiny" version="1.2" viewBox="0 0 19.1 18.2" xml:space="preserve"><path d="M13.6,6.9c-1.2-0.8-2.5-1.2-4-1.2c-4,0-7.3,3.3-7.3,7.3c0,0.6-0.4,1.1-1.1,1.1S0.2,13.6,0.2,13c0-5.2,4.2-9.4,9.4-9.4	c2.2,0,4.4,0.8,6,2.1L13.6,6.9z" class="admin-dash"/><path d="M17.3,7.7c1,1.5,1.6,3.3,1.6,5.3c0,0.6-0.4,1.1-1.1,1.1s-1.1-0.4-1.1-1.1c0-1.3-0.4-2.6-1-3.7L17.3,7.7z" class="admin-dash"/><circle cx="4.2" cy="13.1" r="1" class="admin-dash"/><circle cx="14.8" cy="13.1" r="1" class="admin-dash"/><circle cx="5.7" cy="9.2" r="1" class="admin-dash"/><circle cx="9.5" cy="7.7" r="1" class="admin-dash"/><path d="M10.2,14c-0.3,0.2-0.6,0.4-1,0.4c-0.9,0-1.6-0.7-1.6-1.6c0-0.4,0.2-0.9,0.5-1.2L19,4.5L10.2,14z" class="admin-dash"/></svg>