<svg xmlns="http://www.w3.org/2000/svg" xmlns:xlink="http://www.w3.org/1999/xlink" id="Layer_1" x="0" y="0" version="1.1" viewBox="-449 252.3 59.6 57.7" xml:space="preserve" style="enable-background:new -449 252.3 59.6 57.7"><style type="text/css">.st0{fill:#c6c5c4}</style><path id="XMLID_2114_" d="M-394.4,271.1c0-2.7-2.2-4.9-4.9-4.9h-39.4c-2.7,0-4.9,2.2-4.9,4.9v22.2	c0,2.7,2.2,4.9,4.9,4.9h39.4c2.7,0,4.9-2.2,4.9-4.9C-394.4,293.3-394.4,271.1-394.4,271.1z M-396.1,293.3c0,1.8-1.4,3.2-3.2,3.2	h-39.4c-1.8,0-3.2-1.4-3.2-3.2v-17l18.6,12.8c0.3,0.3,2,1.5,4.3,1.5s4.2-1.5,4.3-1.5l18.5-12.9v17.1H-396.1z M-396.1,274.1	l-19.5,13.6c-0.6,0.4-2,1.2-3.3,1.2c-1.7,0-2.9-0.8-3.2-1l0,0l-19.8-13.6v-3.2c0-1.8,1.4-3.2,3.2-3.2h39.4c1.8,0,3.2,1.4,3.2,3.2	V274.1z" class="st0"/></svg>