<svg xmlns="http://www.w3.org/2000/svg" xmlns:xlink="http://www.w3.org/1999/xlink" width="280" height="280" x="0" y="0" version="1.1" viewBox="0 0 280 280" style="display:block;margin-left:auto;margin-right:auto"><defs><style type="text/css">.g1_13{fill:#1f1f1e}</style></defs><path fill="#FFF" stroke="none" d="M0,0 L0,280 L280,280 L280,0 Z"/><path d="M228.1,197.7l-169.8,0c-1.6,0,-2.9,-1.3,-2.9,-2.9l0,-107l57.7,44.1L79.4,171.1l1,1.2l39.8,-35l-0.1,-0.1l23.2,17.7l22.9,-17.5l39.6,34.9l1,-1.2L173.2,132L231,87.9l0,106.9c0,1.6,-1.3,2.9,-2.9,2.9m0,-115.1c0.1,0,0.1,0,0.2,0.1l-85,64.9l-85,-65Zm0,-5.8l-169.8,0c-4.8,0,-8.7,3.9,-8.7,8.7l0,109.3c0,4.8,3.9,8.7,8.7,8.7l169.8,0c4.8,0,8.7,-3.9,8.7,-8.7l0,-109.3c0,-4.8,-3.9,-8.7,-8.7,-8.7Z" class="g1_13"/></svg>