<svg xmlns="http://www.w3.org/2000/svg" xmlns:xlink="http://www.w3.org/1999/xlink" width="280" height="280" x="0" y="0" version="1.1" viewBox="0 0 280 280" style="display:block;margin-left:auto;margin-right:auto"><defs><style type="text/css">.g1_11{fill:#1f1f1e}</style></defs><path fill="#FFF" stroke="none" d="M0,0 L0,280 L280,280 L280,0 Z"/><path d="M87.6,92L61.8,92C60,92,58.5,90.4,58.5,88.6l0,-25.8c0,-1.9,1.5,-3.4,3.3,-3.4l25.8,0c1.9,0,3.4,1.5,3.4,3.4l0,25.8C91,90.4,89.5,92,87.6,92Z" class="g1_11"/><path d="M153.2,92l-25.8,0C125.5,92,124,90.4,124,88.6l0,-25.8c0,-1.9,1.5,-3.4,3.4,-3.4l25.8,0c1.9,0,3.4,1.5,3.4,3.4l0,25.8c0,1.8,-1.5,3.4,-3.4,3.4Z" class="g1_11"/><path d="M218.7,92L193,92c-1.9,0,-3.4,-1.6,-3.4,-3.4l0,-25.8c0,-1.9,1.5,-3.4,3.4,-3.4l25.7,0c1.9,0,3.4,1.5,3.4,3.4l0,25.8c0,1.8,-1.5,3.4,-3.4,3.4Z" class="g1_11"/><path d="M87.6,157.5l-25.8,0c-1.8,0,-3.3,-1.5,-3.3,-3.4l0,-25.8c0,-1.8,1.5,-3.3,3.3,-3.3l25.8,0c1.9,0,3.4,1.5,3.4,3.3l0,25.8c0,1.9,-1.5,3.4,-3.4,3.4Z" class="g1_11"/><path d="M153.2,157.5l-25.8,0c-1.9,0,-3.4,-1.5,-3.4,-3.4l0,-25.8c0,-1.8,1.5,-3.3,3.4,-3.3l25.8,0c1.9,0,3.4,1.5,3.4,3.3l0,25.8c0,1.9,-1.5,3.4,-3.4,3.4Z" class="g1_11"/><path d="M218.7,157.5l-25.7,0c-1.9,0,-3.4,-1.5,-3.4,-3.4l0,-25.8c0,-1.8,1.5,-3.3,3.4,-3.3l25.7,0c1.9,0,3.4,1.5,3.4,3.3l0,25.8c0,1.9,-1.5,3.4,-3.4,3.4Z" class="g1_11"/><path d="M87.6,223.1l-25.8,0c-1.8,0,-3.3,-1.5,-3.3,-3.4l0,-25.8c0,-1.9,1.5,-3.4,3.3,-3.4l25.8,0c1.9,0,3.4,1.5,3.4,3.4l0,25.8c0,1.9,-1.5,3.4,-3.4,3.4Z" class="g1_11"/><path d="M153.2,223.1l-25.8,0c-1.9,0,-3.4,-1.5,-3.4,-3.4l0,-25.8c0,-1.9,1.5,-3.4,3.4,-3.4l25.8,0c1.9,0,3.4,1.5,3.4,3.4l0,25.8c0,1.9,-1.5,3.4,-3.4,3.4Z" class="g1_11"/><path d="M218.7,223.1l-25.7,0c-1.9,0,-3.4,-1.5,-3.4,-3.4l0,-25.8c0,-1.9,1.5,-3.4,3.4,-3.4l25.7,0c1.9,0,3.4,1.5,3.4,3.4l0,25.8c0,1.9,-1.5,3.4,-3.4,3.4Z" class="g1_11"/></svg>