<svg xmlns="http://www.w3.org/2000/svg" xmlns:xlink="http://www.w3.org/1999/xlink" id="Layer_1" x="0" y="0" version="1.1" viewBox="-449 252.3 59.6 57.7" xml:space="preserve" style="enable-background:new -449 252.3 59.6 57.7"><style type="text/css">.st0{fill:#c6c5c4}</style><path id="XMLID_2105_" d="M-406.3,263.5c0-2.1-1.7-3.8-3.8-3.8h-18.3c-2.1,0-3.8,1.7-3.8,3.8v34.9	c0,2.1,1.7,3.8,3.8,3.8h18.3c2.1,0,3.8-1.7,3.8-3.8V263.5z M-428.4,261.6h18.3c1,0,1.9,0.8,1.9,1.9v1.8h-22.1v-1.8	C-430.3,262.5-429.4,261.6-428.4,261.6z M-408.2,267.1v25.4h-22.1v-25.4H-408.2z M-410.1,300.2h-18.3c-1,0-1.9-0.8-1.9-1.9v-4h22.1	v4C-408.2,299.4-409,300.2-410.1,300.2z" class="st0"/></svg>