<svg xmlns="http://www.w3.org/2000/svg" xmlns:xlink="http://www.w3.org/1999/xlink" id="Layer_1" x="0" y="0" version="1.1" viewBox="0 0 12.5 12.5" xml:space="preserve" style="enable-background:new 0 0 12.5 12.5"><style type="text/css">.st0{fill:gray}</style><path d="M12.5,11.7L8.9,8.1C9.6,7.3,10,6.2,10,5c0-2.7-2.2-4.9-4.9-4.9s-5,2.2-5,4.9S2.3,9.9,5,9.9	c1.2,0,2.3-0.4,3.1-1.1l3.6,3.6L12.5,11.7z M0.6,5c0-2.5,2-4.4,4.4-4.4s4.4,2,4.4,4.4c0,1.2-0.5,2.3-1.3,3.1l0,0	c-0.7,0.8-1.8,1.3-3,1.3C2.6,9.4,0.6,7.5,0.6,5z" class="st0"/></svg>