<svg xmlns="http://www.w3.org/2000/svg" xmlns:xlink="http://www.w3.org/1999/xlink" id="Layer_1" x="0" y="0" baseProfile="tiny" version="1.2" viewBox="0 0 85 85" xml:space="preserve"><style type="text/css">.verification-bank{fill:#bbbdbf}</style><g><g><g><path d="M14.84,66.18h56.29v-8.82c0-1-0.44-1.88-1.25-2.69c-0.75-0.75-1.56-1.06-2.69-1.06h-3.06V33.03h7.01 v-8.57L42.98,13.21L14.84,24.46v8.57h7.01v20.7h-3.06c-1.13,0-2,0.31-2.69,1.06c-0.81,0.81-1.25,1.75-1.25,2.69V66.18 L14.84,66.18L14.84,66.18z M67,62.18H18.84v-4.5H67V62.18z M60.18,53.61H51.3V33.03h8.88V53.61z M47.36,53.61h-8.69V33.03h8.69 V53.61z M34.66,53.61h-8.88V33.03h8.88V53.61L34.66,53.61z M67,29.09H18.84v-1.94l24.14-9.57L67,27.09V29.09z" class="verification-bank"/></g></g></g></svg>